P3
4 4
255
0 144 158 145 39 143 0 104 132 255 134 66
237 0 38 255 208 141 254 171 185 177 221 161
246 131 112 176 0 81 250 157 0 82 204 206
110 0 108 207 151 215 102 141 60 207 0 99